# xmcd
#
# Track frame offsets: 
#        150
#        14400
#        31200
#        47250
#        57825
#        73350
#        89250
#        109200
#        121200
#        139875
#        154575
#        170100
#        196725
#
# Disc length: 3315 seconds
#
# Revision: 0
# Processed by: cddbd v1.5.2PL0 Copyright (c) Steve Scherf et al.
# Submitted via: ExactAudioCopy v0.99pb5
#
DISCID=ae0cf10d
DTITLE=Кристина Орбакайте - Перелетная птица
DYEAR=2003
DGENRE=Поп
TTITLE0=Перелетная птица
TTITLE1=Просто любить тебя (С Авраамом Руссо)
TTITLE2=Свет твоей любви
TTITLE3=Губки бантиком
TTITLE4=Я к тебе не вернусь
TTITLE5=Телефонный разговор
TTITLE6=Ты буди меня
TTITLE7=Я не сказала
TTITLE8=Лето, лето
TTITLE9=Дельфин и русалка
TTITLE10=Я к тебе не вернусь (Ремикс)
TTITLE11=Свет твоей любки (ремикс)
TTITLE12=Видео
EXTD=
EXTT0=
EXTT1=
EXTT2=
EXTT3=
EXTT4=
EXTT5=
EXTT6=
EXTT7=
EXTT8=
EXTT9=
EXTT10=
EXTT11=
EXTT12=
PLAYORDER=
